<svg xmlns="http://www.w3.org/2000/svg" width="1000" height="1000" fill="none" viewBox="0 0 1000 1000">
    <path fill="#fff" d="M0 0h1000v1000H0z" />
    <path fill="#000" fill-rule="evenodd"
        d="m501.729 0 108.253 62.5 54.126 31.25 27.064 15.625 13.531 7.812v221.344l-24.526 14.496-178.448 105.471-35.521 20.994-153.923 83.884V390.625L501.729 281.25l27.063-15.625 13.531-7.813v-46.875L501.729 187.5l-54.127 31.25-216.506 125v500l-54.127-31.25L68.716 750V250l216.506-125L501.729 0Zm284.164 290.545V164.062l13.532 7.813 27.063 15.625 54.127 31.25 13.531 7.812 13.532 7.813L934.741 250v500L718.235 875l-108.253 62.5-54.127 31.25-13.532 7.812-13.531 7.813L501.729 1000l-27.064-15.625-13.531-7.813-13.532-7.812-54.127-31.25-54.126-31.25-27.064-15.625V656.25l13.532-7.813 135.317-78.125v171.875l40.595 23.438 40.594-23.438v-218.75l162.38-93.75v218.75l13.532-7.812 13.532-7.813 54.126-31.25V290.545Z"
        clip-rule="evenodd" />
</svg>